<?xml version="1.0" standalone="no"?>
<!DOCTYPE svg PUBLIC "-//W3C//DTD SVG 20010904//EN"
 "http://www.w3.org/TR/2001/REC-SVG-20010904/DTD/svg10.dtd">
<svg version="1.0" xmlns="http://www.w3.org/2000/svg"
 width="700.000000pt" height="700.000000pt" viewBox="0 0 700.000000 700.000000"
 preserveAspectRatio="xMidYMid meet">
<metadata>
Created by potrace 1.11, written by Peter Selinger 2001-2013
</metadata>
<g transform="translate(0.000000,700.000000) scale(0.100000,-0.100000)"
fill="#000000" stroke="none">
<path d="M1385 6982 c-421 -27 -788 -214 -1049 -537 -174 -214 -289 -497 -314
-774 -3 -42 -6 -1034 -6 -2206 0 -2069 1 -2163 28 -2290 25 -119 72 -257 122
-358 224 -446 670 -752 1162 -795 106 -9 4345 -8 4382 2 14 3 45 9 70 12 48 6
182 40 215 53 11 5 43 17 70 26 69 25 173 77 253 129 300 192 528 503 617 841
49 185 48 148 53 1665 2 784 6 1767 8 2185 1 418 -1 751 -5 740 -6 -15 -10 -7
-15 35 -11 89 -64 293 -96 371 -177 428 -547 751 -985 858 -190 46 -106 44
-2345 45 -1169 1 -2143 0 -2165 -2z"/>
</g>
</svg>
